
<svg width="64" height="64" viewBox="0 0 64 64" fill="none" xmlns="http://www.w3.org/2000/svg">
  <rect width="64" height="64" rx="32" fill="#1E88E5"/>
  <path d="M32 20C25.373 20 20 25.373 20 32C20 38.627 25.373 44 32 44C38.627 44 44 38.627 44 32C44 25.373 38.627 20 32 20ZM32 40C27.589 40 24 36.411 24 32C24 27.589 27.589 24 32 24C36.411 24 40 27.589 40 32C40 36.411 36.411 40 32 40Z" fill="white"/>
  <path d="M32 28C29.791 28 28 29.791 28 32C28 34.209 29.791 36 32 36C34.209 36 36 34.209 36 32C36 29.791 34.209 28 32 28Z" fill="white"/>
</svg>
